<svg width="192" height="50" viewBox="0 0 192 50" fill="none" xmlns="http://www.w3.org/2000/svg">
<path d="M26.2695 5.50684C27.9569 5.70088 29.4909 6.11191 30.8711 6.73828L31.0605 6.82617C33.0485 7.74711 34.6127 9.02009 35.7529 10.6455C35.8015 10.7142 35.848 10.784 35.8945 10.8535C36.3474 10.1913 36.8146 9.6231 37.2295 9.1377C34.9073 6.41254 31.7837 4.39118 28.2227 3.43945V1.42383C36.112 3.31032 42.1723 9.90143 43.2754 18.0664C45.4265 18.0738 47.168 19.8198 47.168 21.9727V27.7344L47.167 27.835C47.1142 29.9211 45.4255 31.5997 43.3359 31.6387C42.4138 40.029 36.2692 46.8463 28.2227 48.7705V46.7549C29.4927 46.4154 30.7053 45.9366 31.8477 45.3418C31.8719 45.0705 31.9039 44.7272 31.9443 44.3291C31.9955 43.8261 32.0593 43.234 32.1377 42.5889C31.9132 42.7026 31.6832 42.8131 31.4463 42.918C29.9441 43.5779 28.2184 44.0033 26.2695 44.1982V50H20.8984V44.1709C19.1026 43.9687 17.4795 43.5644 16.0303 42.9551C15.6035 42.7746 15.1957 42.5766 14.8057 42.3633C14.8968 43.0962 14.9713 43.7679 15.0283 44.3291C15.0635 44.6754 15.0904 44.9804 15.1133 45.2324C16.3155 45.8786 17.5983 46.3949 18.9453 46.7549V48.7705C10.8987 46.8463 4.75317 40.0291 3.83105 31.6387C1.74196 31.5992 0.0538104 29.9208 0.000976562 27.835L0 27.7344V21.9727C7.53381e-08 19.8202 1.74098 18.0743 3.8916 18.0664C4.99468 9.90137 11.0559 3.31033 18.9453 1.42383V3.43945C15.3342 4.40456 12.1727 6.46944 9.84082 9.25293C10.3279 9.82799 10.8759 10.5156 11.3877 11.3291C11.5207 11.109 11.6642 10.8939 11.8164 10.6826C13.0363 9.00686 14.6934 7.70641 16.7881 6.78223C18.0564 6.21522 19.4269 5.82042 20.8984 5.59668V0H26.2695V5.50684ZM41.5 29.8193C41.2382 30.0984 40.9618 30.3535 40.6777 30.5908C39.9406 31.2067 39.0786 31.7618 38.335 32.2891C38.2378 32.358 38.1426 32.4291 38.0469 32.499C38.0571 32.7032 38.0635 32.911 38.0635 33.1221C38.0634 35.34 37.4969 37.2933 36.3633 38.9814C35.7983 39.8166 35.1069 40.5603 34.291 41.2148C34.1417 42.258 34.023 43.2483 33.9355 44.0664C38.4186 40.8881 41.3789 35.7042 41.5 29.8193ZM5.67383 30.0254C5.85597 35.7328 8.70741 40.7647 13.0205 43.917C12.9239 43.0275 12.7926 41.9524 12.626 40.834C12.0004 40.2749 11.4462 39.6519 10.9658 38.9629C9.75823 37.2131 9.10544 35.0811 9.00684 32.5674H9.01855C8.8924 32.4742 8.76637 32.3803 8.6377 32.2891C7.89409 31.7618 7.03206 31.2067 6.29492 30.5908C6.08247 30.4133 5.87485 30.2252 5.67383 30.0254ZM26.2695 38.1924C26.7255 38.0898 27.1572 37.9589 27.5645 37.7979C28.6981 37.3419 29.5858 36.714 30.2266 35.9131C30.8673 35.0998 31.1937 34.1507 31.2061 33.0664C31.1937 32.0806 30.9038 31.2668 30.3369 30.626C29.7702 29.9731 28.9755 29.4312 27.9531 29C27.4371 28.7734 26.8756 28.5601 26.2695 28.3594V38.1924ZM8.63867 10.8633C6.7594 13.6974 5.66406 17.0965 5.66406 20.752V26.165C5.76499 26.5947 5.89827 26.9648 6.05859 27.2891C6.41288 28.0055 6.91617 28.5648 7.54688 29.0918C8.20527 29.6419 8.92125 30.0962 9.76758 30.6963C10.4967 31.2133 11.269 31.806 11.9941 32.5674H15.7539C15.8525 33.8858 16.259 34.9826 16.9736 35.8574C17.6883 36.7322 18.6187 37.3851 19.7646 37.8164C20.1289 37.952 20.5073 38.0633 20.8984 38.1562V28.125H13.2119C10.5305 28.0906 8.37686 25.8964 8.39258 23.2148L8.39355 23.1514L8.46875 19.1406L11.8057 19.6748L10.4102 19.4512C10.1402 18.562 10.0049 17.592 10.0049 16.542C10.0049 15.4975 10.1385 14.5137 10.4033 13.5908C9.9033 12.5183 9.2618 11.627 8.63867 10.8633ZM38.4395 10.7334C37.9253 11.3545 37.3919 12.0611 36.9307 12.8838C37.3191 13.9424 37.5247 15.0817 37.5459 16.3018H35.6855C35.3022 17.8636 35.2152 18.8467 35.166 19.6748L38.5039 19.1406L38.5791 23.1514L38.5801 23.2148C38.5927 25.3654 37.2094 27.2005 35.2783 27.8613C35.6227 27.7438 35.9511 27.5926 36.2559 27.4053C36.5885 27.8505 36.8836 28.3261 37.1396 28.833C37.3776 29.3042 37.5688 29.8072 37.7148 30.3408C38.3456 29.9045 38.9036 29.5281 39.4258 29.0918C40.0565 28.5648 40.5598 28.0055 40.9141 27.2891C41.2682 26.5729 41.5039 25.6366 41.5039 24.3164V20.752C41.5039 17.0399 40.3724 13.5935 38.4395 10.7334ZM3.41797 20.0811C2.57557 20.2979 1.95312 21.0626 1.95312 21.9727V27.7344C1.95312 28.6444 2.57558 29.4092 3.41797 29.626V20.0811ZM43.75 29.626C44.5924 29.4092 45.2148 28.6444 45.2148 27.7344V21.9727C45.2148 21.0626 44.5924 20.2979 43.75 20.0811V29.626ZM34.0674 28.1094C34.0978 28.1071 34.128 28.1044 34.1582 28.1016C34.128 28.1044 34.0978 28.1071 34.0674 28.1094ZM34.3584 28.0791C34.4005 28.0734 34.4426 28.0683 34.4844 28.0615C34.4426 28.0683 34.4005 28.0734 34.3584 28.0791ZM34.8955 27.9746C34.8068 27.997 34.7175 28.0177 34.627 28.0352C34.7175 28.0178 34.8068 27.9969 34.8955 27.9746ZM35.0059 27.9463C35.0577 27.9319 35.109 27.9164 35.1602 27.9004C35.109 27.9164 35.0577 27.9319 35.0059 27.9463ZM10.3467 23.1875C10.3161 24.8265 11.6361 26.1717 13.2754 26.1719H20.0176C19.957 24.3092 18.5835 22.7403 16.7314 22.4434L10.3799 21.4248L10.3467 23.1875ZM30.2412 22.4434C28.3892 22.7403 27.0157 24.3092 26.9551 26.1719H33.6973C35.3365 26.1717 36.6566 24.8265 36.626 23.1875L36.5928 21.4248L30.2412 22.4434ZM13.7861 19.9922L17.041 20.5146C18.6479 20.7723 20.0142 21.6686 20.8984 22.9189V22.9102C20.0141 21.6643 18.65 20.7717 17.0469 20.5146L13.7852 19.9912L13.7861 19.9922ZM26.2695 22.0488L26.7139 22.1602C27.5614 21.311 28.6725 20.7165 29.9316 20.5146L33.1855 19.9922C33.2317 19.1526 33.2928 18.0315 33.6807 16.3018H30.9473C30.7748 14.6876 30.0481 13.4298 28.7666 12.5303C28.0546 12.0257 27.222 11.663 26.2695 11.4414V22.0488ZM20.8984 11.5576C20.6322 11.6358 20.377 11.7256 20.1338 11.8281C19.1113 12.2593 18.3292 12.8449 17.7871 13.584C17.245 14.3233 16.9675 15.1675 16.9551 16.1162C16.9551 16.9048 17.1339 17.5888 17.4912 18.168C17.8609 18.7471 18.3599 19.2399 18.9883 19.6465C19.5673 20.0098 20.2044 20.3194 20.8984 20.5781V11.5576Z" fill="#2B78C5"/>
<path d="M178.643 43C178.099 43 177.596 42.9559 177.133 42.8678C176.678 42.787 176.314 42.6915 176.043 42.5813L176.968 39.4745C177.548 39.6434 178.066 39.7242 178.522 39.7169C178.977 39.7095 179.377 39.5663 179.722 39.2872C180.075 39.0154 180.372 38.56 180.615 37.921L180.956 37.0066L174.82 19.7315H179.05L182.95 32.5116H183.127L187.038 19.7315H191.279L184.504 38.7033C184.188 39.5993 183.769 40.3669 183.248 41.0059C182.726 41.6522 182.087 42.1443 181.331 42.4822C180.582 42.8274 179.686 43 178.643 43Z" fill="#2B78C5"/>
<path d="M163.824 36.9956C162.752 36.9956 161.786 36.8046 160.927 36.4227C160.075 36.0334 159.399 35.4605 158.9 34.704C158.407 33.9475 158.161 33.0147 158.161 31.9056C158.161 30.9508 158.338 30.1612 158.69 29.5369C159.043 28.9126 159.524 28.4131 160.133 28.0386C160.743 27.664 161.43 27.3812 162.194 27.1902C162.965 26.9919 163.762 26.8487 164.584 26.7606C165.576 26.6577 166.38 26.5659 166.997 26.4851C167.614 26.397 168.062 26.2648 168.341 26.0885C168.628 25.9049 168.771 25.6221 168.771 25.2402V25.1741C168.771 24.3441 168.525 23.7014 168.033 23.2461C167.541 22.7907 166.832 22.563 165.907 22.563C164.93 22.563 164.155 22.776 163.582 23.202C163.016 23.628 162.634 24.1311 162.436 24.7113L158.712 24.1825C159.006 23.1542 159.491 22.2949 160.167 21.6045C160.842 20.9067 161.669 20.3852 162.645 20.04C163.622 19.6875 164.702 19.5112 165.884 19.5112C166.7 19.5112 167.511 19.6067 168.319 19.7976C169.127 19.9886 169.865 20.3044 170.534 20.7451C171.202 21.1785 171.738 21.7697 172.142 22.5189C172.554 23.2681 172.759 24.2046 172.759 25.3283V36.6541H168.925V34.3294H168.793C168.551 34.7995 168.209 35.2402 167.768 35.6515C167.335 36.0555 166.788 36.3823 166.127 36.632C165.473 36.8744 164.706 36.9956 163.824 36.9956ZM164.86 34.065C165.66 34.065 166.355 33.9071 166.942 33.5913C167.53 33.2681 167.981 32.8421 168.297 32.3133C168.62 31.7844 168.782 31.2079 168.782 30.5835V28.5894C168.657 28.6923 168.444 28.7877 168.143 28.8759C167.849 28.964 167.519 29.0411 167.151 29.1072C166.784 29.1733 166.421 29.2321 166.061 29.2835C165.701 29.3349 165.389 29.379 165.124 29.4157C164.529 29.4965 163.997 29.6287 163.527 29.8123C163.057 29.996 162.686 30.253 162.414 30.5835C162.142 30.9067 162.006 31.3254 162.006 31.8395C162.006 32.574 162.274 33.1285 162.811 33.5031C163.347 33.8777 164.03 34.065 164.86 34.065Z" fill="#2B78C5"/>
<path d="M139.468 36.6541V14.0907H147.929C149.663 14.0907 151.117 14.4139 152.292 15.0602C153.475 15.7066 154.367 16.5953 154.969 17.7264C155.579 18.8502 155.884 20.1282 155.884 21.5604C155.884 23.0073 155.579 24.2927 154.969 25.4164C154.36 26.5402 153.46 27.4253 152.27 28.0716C151.08 28.7106 149.615 29.0301 147.874 29.0301H142.266V25.6698H147.323C148.337 25.6698 149.167 25.4936 149.813 25.141C150.46 24.7885 150.937 24.3037 151.245 23.6867C151.561 23.0698 151.719 22.361 151.719 21.5604C151.719 20.7598 151.561 20.0547 151.245 19.4451C150.937 18.8355 150.456 18.3617 149.802 18.0239C149.156 17.6787 148.322 17.5061 147.301 17.5061H143.555V36.6541H139.468Z" fill="#2B78C5"/>
<path d="M124.374 26.7385V36.6541H120.386V19.7315H124.198V22.6071H124.396C124.786 21.6596 125.406 20.9067 126.258 20.3485C127.118 19.7903 128.179 19.5112 129.442 19.5112C130.61 19.5112 131.627 19.7609 132.494 20.2604C133.368 20.7598 134.044 21.4833 134.521 22.4308C135.006 23.3783 135.245 24.5277 135.237 25.8792V36.6541H131.249V26.4961C131.249 25.365 130.955 24.48 130.368 23.841C129.787 23.202 128.983 22.8825 127.955 22.8825C127.257 22.8825 126.636 23.0367 126.093 23.3452C125.557 23.6463 125.134 24.0834 124.826 24.6563C124.525 25.2292 124.374 25.9232 124.374 26.7385Z" fill="#2B78C5"/>
<path d="M112.296 36.6541V19.7315H116.285V36.6541H112.296ZM114.301 17.3298C113.67 17.3298 113.126 17.1205 112.671 16.7018C112.215 16.2758 111.988 15.7653 111.988 15.1704C111.988 14.5681 112.215 14.0577 112.671 13.639C113.126 13.213 113.67 13 114.301 13C114.94 13 115.484 13.213 115.932 13.639C116.387 14.0577 116.615 14.5681 116.615 15.1704C116.615 15.7653 116.387 16.2758 115.932 16.7018C115.484 17.1205 114.94 17.3298 114.301 17.3298Z" fill="#2B78C5"/>
<path d="M94.2944 36.6541V14.0907H108.749V17.5171H98.3818V23.6427H107.758V27.069H98.3818V36.6541H94.2944Z" fill="#2B78C5"/>
<path d="M86.0289 36.6541V19.7315H90.0172V36.6541H86.0289ZM88.0341 17.3298C87.4024 17.3298 86.8589 17.1205 86.4035 16.7018C85.9481 16.2758 85.7205 15.7653 85.7205 15.1704C85.7205 14.5681 85.9481 14.0577 86.4035 13.639C86.8589 13.213 87.4024 13 88.0341 13C88.6731 13 89.2166 13.213 89.6646 13.639C90.12 14.0577 90.3477 14.5681 90.3477 15.1704C90.3477 15.7653 90.12 16.2758 89.6646 16.7018C89.2166 17.1205 88.6731 17.3298 88.0341 17.3298Z" fill="#2B78C5"/>
<path d="M66.5308 36.6541H62.168L70.1114 14.0907H75.1573L83.1118 36.6541H78.749L72.7225 18.7179H72.5462L66.5308 36.6541ZM66.674 27.8072H78.5727V31.0903H66.674V27.8072Z" fill="#2B78C5"/>
</svg>
